# xmcd CD database file
#
# Track frame offsets:
#	150
#	18920
#	34515
#	52532
#	70607
#	84868
#	100687
#	104182
#	124957
#	141232
#	158528
#	172403
#
# Disc length: 2534 seconds
#
# Revision: 0
# Processed by: cddbd v1.5.1PL0 Copyright (c) Steve Scherf et al.
# Submitted via: CDex 1.51
#
DISCID=9209e40c
DTITLE=Las Blacanblus - Suena en mí
DYEAR=2004
DGENRE=Blues
TTITLE0=Fuego sobre fuego
TTITLE1=Celebrar
TTITLE2=Sandalo
TTITLE3=Dentro y fuera
TTITLE4=Hombre de mala sangre
TTITLE5=Suena en mí
TTITLE6=Intro juegos
TTITLE7=Juegos falsos
TTITLE8=El mambo de la abuela
TTITLE9=Presiento
TTITLE10=Loque deba ser
TTITLE11=Amén
EXTD=YEAR: 2004
EXTT0=
EXTT1=
EXTT2=
EXTT3=
EXTT4=
EXTT5=
EXTT6=
EXTT7=
EXTT8=
EXTT9=
EXTT10=
EXTT11=
PLAYORDER=
